<?xml version="1.0" encoding="utf-8"?>
<!DOCTYPE svg PUBLIC "-//W3C//DTD SVG 1.0//EN" "http://www.w3.org/TR/2001/REC-SVG-20010904/DTD/svg10.dtd">
<svg version="1.0" xmlns="http://www.w3.org/2000/svg" width="2000" height="1500" viewBox="0 0 2000 1500" preserveAspectRatio="xMidYMid meet" style="width: 100%; height: auto; max-width: 100vw; max-height: 100vh;">
 <g fill="#0b0a09">
  <path d="M879.3 1223.6 l-2.8 -2.4 -0.3 -34.1 -0.3 -34.1 -232.6 -0.2 c-217 -0.3 -232.6 -0.4 -232.9 -2 -0.1 -0.9 0.5 -1.9 1.3 -2.2 0.8 -0.3 1.2 -1 0.9 -1.5 -0.3 -0.5 0.1 -1.2 1 -1.5 0.8 -0.3 1.3 -1 1 -1.5 -0.3 -0.5 0.1 -1.2 1 -1.5 0.8 -0.3 1.3 -1 1 -1.5 -0.3 -0.5 0.1 -1.2 1 -1.5 0.8 -0.3 1.3 -1 1 -1.5 -0.3 -0.5 0.1 -1.2 1 -1.5 0.8 -0.3 1.3 -1 1 -1.5 -0.3 -0.5 0.1 -1.2 1 -1.5 0.8 -0.3 1.3 -1 1 -1.5 -0.3 -0.5 0.1 -1.2 1 -1.5 0.8 -0.3 1.3 -1 1 -1.5 -0.3 -0.5 0.1 -1.2 1 -1.5 0.8 -0.3 1.2 -1 0.9 -1.6 -0.3 -0.5 0.1 -1 1 -1 1.1 0 1.5 -0.5 1.1 -1.5 -0.3 -0.9 0 -1.5 1 -1.5 1 0 1.4 -0.6 1 -1.5 -0.3 -0.9 0 -1.5 1 -1.5 1 0 1.4 -0.6 1 -1.5 -0.3 -0.9 0 -1.5 1 -1.5 1 0 1.4 -0.6 1 -1.5 -0.3 -0.9 0 -1.5 1 -1.5 1 0 1.4 -0.6 1 -1.5 -0.3 -0.9 0 -1.5 1 -1.5 1 0 1.4 -0.6 1 -1.5 -0.3 -0.9 0 -1.5 1 -1.5 1 0 1.4 -0.6 1 -1.5 -0.3 -0.9 0 -1.5 0.9 -1.5 1.4 0 1.7 -0.6 1.4 -2.7 0 -0.3 0.6 -1 1.5 -1.5 0.9 -0.5 1.4 -1.3 1.1 -1.8 -0.3 -0.4 0.2 -1.1 1.1 -1.4 0.8 -0.3 1.3 -1 1 -1.5 -0.3 -0.5 0.1 -1.2 1 -1.5 0.8 -0.3 1.3 -1 1 -1.5 -0.3 -0.5 0.1 -1.2 1 -1.5 0.8 -0.3 1.3 -1 1 -1.5 -0.3 -0.5 0.1 -1.2 1 -1.5 0.8 -0.3 1.3 -1 1 -1.5 -0.3 -0.5 0.1 -1.2 1 -1.5 0.8 -0.3 1.3 -1 1 -1.5 -0.3 -0.5 0.1 -1.2 1 -1.5 0.8 -0.3 1.3 -1 1 -1.5 -0.3 -0.5 0.1 -1.2 1 -1.5 0.8 -0.3 1.3 -1 1 -1.5 -0.3 -0.5 0.1 -1.2 1 -1.5 0.8 -0.3 1.3 -1 1 -1.5 -0.3 -0.5 0.1 -1.2 1 -1.5 0.8 -0.3 1.3 -1 1 -1.5 -0.3 -0.5 0.1 -1.2 1 -1.5 0.8 -0.3 1.3 -1 1 -1.5 -0.3 -0.5 0.1 -1.2 1 -1.5 0.8 -0.3 1.3 -1 1 -1.5 -0.3 -0.5 0.1 -1.2 1 -1.5 0.8 -0.3 1.3 -1 1 -1.5 -0.3 -0.5 0.1 -1.2 1 -1.5 0.8 -0.3 1.2 -1 0.9 -1.6 -0.3 -0.5 0.1 -1 1 -1 1.1 0 1.5 -0.5 1.1 -1.5 -0.3 -0.9 0 -1.5 1 -1.5 1 0 1.4 -0.6 1 -1.5 -0.3 -0.9 0 -1.5 1 -1.5 1 0 1.4 -0.6 1 -1.5 -0.3 -0.9 0 -1.5 1 -1.5 1 0 1.4 -0.6 1 -1.5 -0.3 -0.9 0 -1.5 1 -1.5 1 0 1.4 -0.6 1 -1.5 -0.3 -0.9 0 -1.5 1 -1.5 1 0 1.4 -0.6 1 -1.5 -0.3 -0.9 0 -1.5 0.9 -1.5 0.8 0 1.5 -0.4 1.5 -1 0 -2.1 0.2 -2.5 1.6 -3.3 0.8 -0.5 1.2 -1.2 0.9 -1.7 -0.3 -0.4 0.2 -1.1 1.1 -1.4 0.8 -0.3 1.3 -1 1 -1.5 -0.3 -0.5 0.1 -1.2 1 -1.5 0.8 -0.3 1.3 -1 1 -1.5 -0.3 -0.5 0.1 -1.2 1 -1.5 0.8 -0.3 1.3 -1 1 -1.5 -0.3 -0.5 0.1 -1.2 1 -1.5 0.8 -0.3 1.3 -1 1 -1.5 -0.3 -0.5 0.1 -1.2 1 -1.5 0.8 -0.3 1.3 -1 1 -1.5 -0.3 -0.5 0.1 -1.2 1 -1.5 0.8 -0.3 1.3 -1 1 -1.5 -0.3 -0.5 0.1 -1.2 1 -1.5 0.8 -0.3 1.3 -1 1 -1.5 -0.3 -0.5 0.1 -1.2 1 -1.5 0.8 -0.3 1.3 -1 1 -1.5 -0.3 -0.5 0.1 -1.2 1 -1.5 0.8 -0.3 1.3 -1 1 -1.5 -0.3 -0.5 0.1 -1.2 1 -1.5 0.8 -0.3 1.3 -1 1 -1.5 -0.3 -0.5 0.1 -1.2 1 -1.5 0.8 -0.3 1.3 -1 1 -1.5 -0.3 -0.5 0.1 -1.2 1 -1.5 0.8 -0.3 1.3 -1 1 -1.5 -0.3 -0.5 0.1 -1.2 1 -1.5 0.8 -0.3 1.2 -1 0.9 -1.6 -0.3 -0.5 0.1 -1 1 -1 1.1 0 1.5 -0.5 1.1 -1.5 -0.3 -0.9 0 -1.5 1 -1.5 1 0 1.4 -0.6 1 -1.5 -0.3 -0.9 0 -1.5 1 -1.5 1 0 1.4 -0.6 1 -1.5 -0.3 -0.9 0 -1.5 1 -1.5 1 0 1.4 -0.6 1 -1.5 -0.3 -0.9 0 -1.5 1 -1.5 1 0 1.4 -0.6 1 -1.5 -0.3 -0.9 0 -1.5 1 -1.5 1 0 1.4 -0.6 1 -1.5 -0.3 -0.9 0 -1.5 1 -1.5 1 0 1.4 -0.6 1 -1.5 -0.3 -0.9 0 -1.5 0.9 -1.5 1.4 0 1.9 -1.1 1.3 -2.6 -0.2 -0.3 0.5 -1 1.5 -1.5 0.9 -0.6 1.5 -1.4 1.2 -1.9 -0.3 -0.4 0.2 -1.1 1.1 -1.4 0.8 -0.3 1.3 -1 1 -1.5 -0.3 -0.5 0.1 -1.2 1 -1.5 0.8 -0.3 1.3 -1 1 -1.5 -0.3 -0.5 0.1 -1.2 1 -1.5 0.8 -0.3 1.3 -1 1 -1.5 -0.3 -0.5 0.1 -1.2 1 -1.5 0.8 -0.3 1.3 -1 1 -1.5 -0.3 -0.5 0.1 -1.2 1 -1.5 0.8 -0.3 1.3 -1 1 -1.5 -0.3 -0.5 0.1 -1.2 1 -1.5 0.8 -0.3 1.3 -1 1 -1.5 -0.3 -0.5 0.1 -1.2 1 -1.5 0.8 -0.3 1.3 -1 1 -1.5 -0.3 -0.5 0.1 -1.2 1 -1.5 0.8 -0.3 1.3 -1 1 -1.5 -0.3 -0.5 0.1 -1.2 1 -1.5 0.8 -0.3 1.3 -1 1 -1.5 -0.3 -0.5 0.1 -1.2 1 -1.5 0.8 -0.3 1.3 -1 1 -1.5 -0.3 -0.5 0.1 -1.2 1 -1.5 0.8 -0.3 1.3 -1 1 -1.5 -0.3 -0.5 0.1 -1.2 1 -1.5 0.8 -0.3 1.2 -1 0.9 -1.6 -0.3 -0.5 0.1 -1 1 -1 1.1 0 1.5 -0.5 1.1 -1.5 -0.3 -0.9 0 -1.5 1 -1.5 1 0 1.4 -0.6 1 -1.5 -0.3 -0.9 0 -1.5 1 -1.5 1 0 1.4 -0.6 1 -1.5 -0.3 -0.9 0 -1.5 1 -1.5 1 0 1.4 -0.6 1 -1.5 -0.3 -0.9 0 -1.5 1 -1.5 1 0 1.4 -0.6 1 -1.5 -0.3 -0.9 0 -1.5 1 -1.5 1 0 1.4 -0.6 1 -1.5 -0.3 -0.9 0 -1.5 1 -1.5 1 0 1.4 -0.6 1 -1.5 -0.3 -0.9 0 -1.5 0.9 -1.5 0.8 0 1.5 -0.4 1.5 -1 0 -2.1 0.2 -2.5 1.6 -3.3 0.8 -0.5 1.2 -1.2 0.9 -1.7 -0.3 -0.4 0.2 -1.1 1.1 -1.4 0.8 -0.3 1.3 -1 1 -1.5 -0.3 -0.5 0.1 -1.2 1 -1.5 0.8 -0.3 1.3 -1 1 -1.5 -0.3 -0.5 0.1 -1.2 1 -1.5 0.8 -0.3 1.3 -1 1 -1.5 -0.3 -0.5 0.1 -1.2 1 -1.5 0.8 -0.3 1.3 -1 1 -1.5 -0.3 -0.5 0.1 -1.2 1 -1.5 0.8 -0.3 1.3 -1 1 -1.5 -0.3 -0.5 0.1 -1.2 1 -1.5 0.8 -0.3 1.3 -1 1 -1.5 -0.3 -0.5 0.1 -1.2 1 -1.5 0.8 -0.3 1.3 -1 1 -1.5 -0.3 -0.5 0.1 -1.2 1 -1.5 0.8 -0.3 1.3 -1 1 -1.5 -0.3 -0.5 0.1 -1.2 1 -1.5 0.8 -0.3 1.3 -1 1 -1.5 -0.3 -0.5 0.1 -1.2 1 -1.5 0.8 -0.3 1.3 -1 1 -1.5 -0.3 -0.5 0.1 -1.2 1 -1.5 0.8 -0.3 1.3 -1 1 -1.5 -0.3 -0.5 0.1 -1.2 1 -1.5 0.8 -0.3 1.3 -1 1 -1.5 -0.3 -0.5 0.1 -1.2 1 -1.5 0.8 -0.3 1.2 -1 0.9 -1.6 -0.3 -0.5 0.1 -1 1 -1 1.1 0 1.5 -0.5 1.1 -1.5 -0.3 -0.9 0 -1.5 1 -1.5 1 0 1.4 -0.6 1 -1.5 -0.3 -0.9 0 -1.5 1 -1.5 1 0 1.4 -0.6 1 -1.5 -0.3 -0.9 0 -1.5 1 -1.5 1 0 1.4 -0.6 1 -1.5 -0.3 -0.9 0 -1.5 1 -1.5 1 0 1.4 -0.6 1 -1.5 -0.3 -0.9 0 -1.5 1 -1.5 1 0 1.4 -0.6 1 -1.5 -0.3 -0.9 0 -1.5 0.9 -1.5 0.8 0 1.5 -0.4 1.5 -1 0 -2.1 0.2 -2.5 1.6 -3.3 0.8 -0.5 1.2 -1.2 0.9 -1.7 -0.3 -0.4 0.2 -1.1 1.1 -1.4 0.8 -0.3 1.3 -1 1 -1.5 -0.3 -0.5 0.1 -1.2 1 -1.5 0.8 -0.3 1.3 -1 1 -1.5 -0.3 -0.5 0.1 -1.2 1 -1.5 0.8 -0.3 1.3 -1 1 -1.5 -0.3 -0.5 0.1 -1.2 1 -1.5 0.8 -0.3 1.3 -1 1 -1.5 -0.3 -0.5 0.1 -1.2 1 -1.5 0.8 -0.3 1.3 -1 1 -1.5 -0.3 -0.5 0.1 -1.2 1 -1.5 0.8 -0.3 1.3 -1 1 -1.5 -0.3 -0.5 0.1 -1.2 1 -1.5 0.8 -0.3 1.3 -1 1 -1.5 -0.3 -0.5 0.1 -1.2 1 -1.5 0.8 -0.3 1.3 -1 1 -1.5 -0.3 -0.5 0.1 -1.2 1 -1.5 0.8 -0.3 1.3 -1 1 -1.5 -0.3 -0.5 0.1 -1.2 1 -1.5 0.8 -0.3 1.3 -1 1 -1.5 -0.3 -0.5 0.1 -1.2 1 -1.5 0.8 -0.3 1.3 -1 1 -1.5 -0.3 -0.5 0.1 -1.2 1 -1.5 0.8 -0.3 1.3 -1 1 -1.5 -0.3 -0.5 0.1 -1.2 1 -1.5 0.8 -0.3 1.2 -1 0.9 -1.6 -0.3 -0.5 0.1 -1 1 -1 1.1 0 1.5 -0.5 1.1 -1.5 -0.3 -0.9 0 -1.5 1 -1.5 1 0 1.4 -0.6 1 -1.5 -0.3 -0.9 0 -1.5 1 -1.5 1 0 1.4 -0.6 1 -1.5 -0.3 -0.9 0 -1.5 1 -1.5 1 0 1.4 -0.6 1 -1.5 -0.3 -0.9 0 -1.5 1 -1.5 1 0 1.4 -0.6 1 -1.5 -0.3 -0.9 0 -1.5 1 -1.5 1 0 1.4 -0.6 1 -1.5 -0.3 -0.9 0 -1.5 1 -1.5 1 0 1.4 -0.6 1 -1.5 -0.3 -0.9 0 -1.5 0.9 -1.5 1.4 0 1.9 -1.1 1.3 -2.6 -0.2 -0.3 0.5 -1 1.5 -1.5 0.9 -0.6 1.5 -1.4 1.2 -1.9 -0.3 -0.4 0.2 -1.1 1.1 -1.4 0.8 -0.3 1.3 -1 1 -1.5 -0.3 -0.5 0.1 -1.2 1 -1.5 0.8 -0.3 1.3 -1 1 -1.5 -0.3 -0.5 0.1 -1.2 1 -1.5 0.8 -0.3 1.3 -1 1 -1.5 -0.3 -0.5 0.1 -1.2 1 -1.5 0.8 -0.3 1.3 -1 1 -1.5 -0.3 -0.5 0.1 -1.2 1 -1.5 0.8 -0.3 1.3 -1 1 -1.5 -0.3 -0.5 0.1 -1.2 1 -1.5 0.8 -0.3 1.3 -1 1 -1.5 -0.3 -0.5 0.1 -1.2 1 -1.5 0.8 -0.3 1.3 -1 1 -1.5 -0.3 -0.5 0.1 -1.2 1 -1.5 0.8 -0.3 1.3 -1 1 -1.5 -0.3 -0.5 0.1 -1.2 1 -1.5 0.8 -0.3 1.3 -1 1 -1.5 -0.3 -0.5 0.1 -1.2 1 -1.5 0.8 -0.3 1.3 -1 1 -1.5 -0.3 -0.5 0.1 -1.2 1 -1.5 0.8 -0.3 1.3 -1 1 -1.5 -0.3 -0.5 0.1 -1.2 1 -1.5 0.8 -0.3 1.2 -1 0.9 -1.6 -0.3 -0.5 0.1 -1 1 -1 1.1 0 1.5 -0.5 1.1 -1.5 -0.3 -0.9 0 -1.5 1 -1.5 1 0 1.4 -0.6 1 -1.5 -0.3 -0.9 0 -1.5 1 -1.5 1 0 1.4 -0.6 1 -1.5 -0.3 -0.9 0 -1.5 1 -1.5 1 0 1.4 -0.6 1 -1.5 -0.3 -0.9 0 -1.5 1 -1.5 1 0 1.4 -0.6 1 -1.5 -0.3 -0.9 0 -1.5 1 -1.5 1 0 1.4 -0.6 1 -1.5 -0.3 -0.9 0 -1.5 1 -1.5 1 0 1.4 -0.6 1 -1.5 -0.3 -0.9 0 -1.5 0.9 -1.5 0.8 0 1.5 -0.4 1.5 -1 0 -2.1 0.2 -2.5 1.6 -3.3 0.8 -0.5 1.2 -1.2 0.9 -1.7 -0.3 -0.4 0.2 -1.1 1.1 -1.4 0.8 -0.3 1.3 -1 1 -1.5 -0.3 -0.5 0.1 -1.2 1 -1.5 0.8 -0.3 1.3 -1 1 -1.5 -0.3 -0.5 0.1 -1.2 1 -1.5 0.8 -0.3 1.3 -1 1 -1.5 -0.3 -0.5 0.1 -1.2 1 -1.5 0.8 -0.3 1.3 -1 1 -1.5 -0.3 -0.5 0.1 -1.2 1 -1.5 0.8 -0.3 1.3 -1 1 -1.5 -0.3 -0.5 0.1 -1.2 1 -1.5 0.8 -0.3 1.3 -1 1 -1.5 -0.3 -0.5 0.1 -1.2 1 -1.5 0.8 -0.3 1.3 -1 1 -1.5 -0.3 -0.5 0.1 -1.2 1 -1.5 0.8 -0.3 1.3 -1 1 -1.5 -0.3 -0.5 0.1 -1.2 1 -1.5 0.8 -0.3 1.3 -1 1 -1.5 -0.3 -0.5 0.1 -1.2 1 -1.5 0.8 -0.3 1.3 -1 1 -1.5 -0.3 -0.5 0.1 -1.2 1 -1.5 0.8 -0.3 1.3 -1 1 -1.5 -0.3 -0.5 0.1 -1.2 1 -1.5 0.8 -0.3 1.3 -1 1 -1.5 -0.3 -0.5 0.1 -1.2 1 -1.5 0.8 -0.3 1.2 -1 0.9 -1.6 -0.3 -0.5 0.1 -1 1 -1 1.1 0 1.5 -0.5 1.1 -1.5 -0.3 -0.9 0 -1.5 1 -1.5 1 0 1.4 -0.6 1 -1.5 -0.3 -0.9 0 -1.5 1 -1.5 1 0 1.4 -0.6 1 -1.5 -0.3 -0.9 0 -1.5 1 -1.5 1 0 1.4 -0.6 1 -1.5 -0.3 -0.9 0 -1.5 1 -1.5 1 0 1.4 -0.6 1 -1.5 -0.3 -0.9 0 -1.5 1 -1.5 1 0 1.4 -0.6 1 -1.5 -0.3 -0.9 0 -1.5 0.9 -1.5 1.4 0 1.7 -0.6 1.4 -2.7 0 -0.3 0.6 -1 1.5 -1.5 0.9 -0.5 1.4 -1.3 1.1 -1.8 -0.3 -0.4 0.2 -1.1 1.1 -1.4 0.8 -0.3 1.3 -1 1 -1.5 -0.3 -0.5 0.1 -1.2 1 -1.5 0.8 -0.3 1.3 -1 1 -1.5 -0.3 -0.5 0.1 -1.2 1 -1.5 0.8 -0.3 1.3 -1 1 -1.5 -0.3 -0.5 0.1 -1.2 1 -1.5 0.8 -0.3 1.3 -1 1 -1.5 -0.3 -0.5 0.1 -1.2 1 -1.5 0.8 -0.3 1.3 -1 1 -1.5 -0.3 -0.5 0.1 -1.2 1 -1.5 0.8 -0.3 1.3 -1 1 -1.5 -0.3 -0.5 0.1 -1.2 1 -1.5 0.8 -0.3 1.3 -1 1 -1.5 -0.3 -0.5 0.1 -1.2 1 -1.5 0.8 -0.3 1.3 -1 1 -1.5 -0.3 -0.5 0.1 -1.2 1 -1.5 0.8 -0.3 1.3 -1 1 -1.5 -0.3 -0.5 0.1 -1.2 1 -1.5 0.8 -0.3 1.3 -1 1 -1.5 -0.3 -0.5 0.1 -1.2 1 -1.5 0.8 -0.3 1.3 -1 1 -1.5 -0.3 -0.5 0.1 -1.2 1 -1.5 0.8 -0.3 1.3 -1 1 -1.5 -0.3 -0.5 0.1 -1.2 1 -1.5 0.8 -0.3 1.2 -1 0.9 -1.6 -0.3 -0.5 0.1 -1 1 -1 1.1 0 1.5 -0.5 1.1 -1.5 -0.3 -0.9 0 -1.5 1 -1.5 1 0 1.4 -0.6 1 -1.5 -0.3 -0.9 0 -1.5 1 -1.5 1 0 1.4 -0.6 1 -1.5 -0.3 -0.9 0 -1.5 1 -1.5 1 0 1.4 -0.6 1 -1.5 -0.3 -0.9 0 -1.5 1 -1.5 1 0 1.4 -0.6 1 -1.5 -0.3 -0.9 0 -1.5 1 -1.5 1 0 1.4 -0.6 1 -1.5 -0.3 -0.9 0 -1.5 1 -1.5 1 0 1.4 -0.6 1 -1.5 -0.3 -0.9 0 -1.5 0.9 -1.5 0.8 0 1.5 -0.4 1.5 -1 0 -2.1 0.2 -2.5 1.6 -3.3 0.8 -0.5 1.2 -1.2 0.9 -1.7 -0.3 -0.4 0.2 -1.1 1.1 -1.4 0.8 -0.3 1.3 -1 1 -1.5 -0.3 -0.5 0.1 -1.2 1 -1.5 0.8 -0.3 1.3 -1 1 -1.5 -0.3 -0.5 0.1 -1.2 1 -1.5 0.8 -0.3 1.3 -1 1 -1.5 -0.3 -0.5 0.1 -1.2 1 -1.5 0.8 -0.3 1.3 -1 1 -1.5 -0.3 -0.5 0.1 -1.2 1 -1.5 0.8 -0.3 1.3 -1 1 -1.5 -0.3 -0.5 0.1 -1.2 1 -1.5 0.8 -0.3 1.3 -1 1 -1.5 -0.3 -0.5 0.1 -1.2 1 -1.5 0.8 -0.3 1.3 -1 1 -1.5 -0.3 -0.5 0.1 -1.2 1 -1.5 0.8 -0.3 1.3 -1 1 -1.5 -0.3 -0.5 0.1 -1.2 1 -1.5 0.8 -0.3 1.3 -1 1 -1.5 -0.3 -0.5 0.1 -1.2 1 -1.5 0.8 -0.3 1.3 -1 1 -1.5 -0.3 -0.5 0.1 -1.2 1 -1.5 0.8 -0.3 1.3 -1 1 -1.5 -0.3 -0.5 0.1 -1.2 1 -1.5 0.8 -0.3 1.2 -1 0.9 -1.6 -0.3 -0.5 0.1 -1 1 -1 1.1 0 1.5 -0.5 1.1 -1.5 -0.3 -0.9 0 -1.5 1 -1.5 1 0 1.4 -0.6 1 -1.5 -0.3 -0.9 0 -1.5 1 -1.5 1 0 1.4 -0.6 1 -1.5 -0.3 -0.9 0 -1.5 1 -1.5 1 0 1.4 -0.6 1 -1.5 -0.3 -0.9 0 -1.5 1 -1.5 1 0 1.4 -0.6 1 -1.5 -0.3 -0.9 0 -1.5 1 -1.5 1 0 1.4 -0.6 1 -1.5 -0.3 -0.9 0 -1.5 1 -1.5 1 0 1.4 -0.6 1 -1.5 -0.3 -0.9 0 -1.5 0.9 -1.5 1.4 0 1.9 -1.1 1.3 -2.6 -0.2 -0.3 0.5 -1 1.5 -1.5 0.9 -0.6 1.5 -1.4 1.2 -1.9 -0.3 -0.4 0.2 -1.1 1.1 -1.4 0.8 -0.3 1.3 -1 1 -1.5 -0.3 -0.5 0.1 -1.2 1 -1.5 0.8 -0.3 1.3 -1 1 -1.5 -0.3 -0.5 0.1 -1.2 1 -1.5 0.8 -0.3 1.3 -1 1 -1.5 -0.3 -0.5 0.1 -1.2 1 -1.5 0.8 -0.3 1.3 -1 1 -1.5 -0.3 -0.5 0.1 -1.2 1 -1.5 0.8 -0.3 1.3 -1 1 -1.5 -0.3 -0.5 0.1 -1.2 1 -1.5 0.8 -0.3 1.3 -1 1 -1.5 -0.3 -0.5 0.1 -1.2 1 -1.5 0.8 -0.3 1.3 -1 1 -1.5 -0.3 -0.5 0.1 -1.2 1 -1.5 0.8 -0.3 1.3 -1 1 -1.5 -0.3 -0.5 0.1 -1.2 1 -1.5 0.8 -0.3 1.3 -1 1 -1.5 -0.3 -0.5 0.1 -1.2 1 -1.5 0.8 -0.3 1.3 -1 1 -1.5 -0.3 -0.5 0.1 -1.2 1 -1.5 0.8 -0.3 1.3 -1 1 -1.5 -0.3 -0.5 0.1 -1.2 1 -1.5 0.8 -0.3 1.3 -1 1 -1.5 -0.3 -0.5 0.1 -1.2 1 -1.5 0.8 -0.3 1.2 -1 0.9 -1.6 -0.3 -0.5 0.1 -1 1 -1 1.1 0 1.5 -0.5 1.1 -1.5 -0.3 -0.9 0 -1.5 1 -1.5 1 0 1.4 -0.6 1 -1.5 -0.3 -0.9 0 -1.5 1 -1.5 1 0 1.4 -0.6 1 -1.5 -0.3 -0.9 0 -1.5 1 -1.5 1 0 1.4 -0.6 1 -1.5 -0.3 -0.9 0 -1.5 1 -1.5 1 0 1.4 -0.6 1 -1.5 -0.3 -0.9 0 -1.5 1 -1.5 1 0 1.4 -0.6 1 -1.5 -0.3 -0.9 0 -1.5 0.9 -1.5 0.8 0 1.5 -0.4 1.5 -1 0 -2.1 0.2 -2.5 1.6 -3.3 0.8 -0.5 1.2 -1.2 0.9 -1.7 -0.3 -0.4 0.2 -1.1 1.1 -1.4 0.8 -0.3 1.3 -1 1 -1.5 -0.3 -0.5 0.1 -1.2 1 -1.5 0.8 -0.3 1.3 -1 1 -1.5 -0.3 -0.5 0.1 -1.2 1 -1.5 0.8 -0.3 1.3 -1 1 -1.5 -0.3 -0.5 0.1 -1.2 1 -1.5 0.8 -0.3 1.3 -1 1 -1.5 -0.3 -0.5 0.1 -1.2 1 -1.5 0.8 -0.3 1.3 -1 1 -1.5 -0.3 -0.5 0.1 -1.2 1 -1.5 0.8 -0.3 1.3 -1 1 -1.5 -0.3 -0.5 0.1 -1.2 1 -1.5 0.8 -0.3 1.3 -1 1 -1.5 -0.3 -0.5 0.1 -1.2 1 -1.5 0.8 -0.3 1.3 -1 1 -1.5 -0.3 -0.5 0.1 -1.2 1 -1.5 0.8 -0.3 1.3 -1 1 -1.5 -0.3 -0.5 0.1 -1.2 1 -1.5 0.8 -0.3 1.3 -1 1 -1.5 -0.3 -0.5 0.1 -1.2 1 -1.5 0.8 -0.3 1.3 -1 1 -1.5 -0.3 -0.5 0.1 -1.2 1 -1.5 0.8 -0.3 1.3 -1 1 -1.5 -0.3 -0.5 0.1 -1.2 1 -1.5 0.8 -0.3 1.2 -1 0.9 -1.6 -0.3 -0.5 0.1 -1 1 -1 1.1 0 1.5 -0.5 1.1 -1.5 -0.3 -0.9 0 -1.5 1 -1.5 1 0 1.4 -0.6 1 -1.5 -0.3 -0.9 0 -1.5 1 -1.5 1 0 1.4 -0.6 1 -1.5 -0.3 -0.9 0 -1.5 1 -1.5 1 0 1.4 -0.6 1 -1.5 -0.3 -0.9 0 -1.5 1 -1.5 1 0 1.4 -0.6 1 -1.5 -0.3 -0.9 0 -1.5 1 -1.5 1 0 1.4 -0.6 1 -1.5 -0.3 -0.9 0 -1.5 1 -1.5 1 0 1.4 -0.6 1 -1.5 -0.3 -0.9 0 -1.5 0.9 -1.5 1.4 0 1.7 -0.6 1.4 -2.7 0 -0.3 0.6 -1 1.5 -1.5 0.9 -0.5 1.4 -1.3 1.1 -1.8 -0.3 -0.4 0.2 -1.1 1.1 -1.4 0.8 -0.3 1.3 -1 1 -1.5 -0.3 -0.5 0.1 -1.2 1 -1.5 0.8 -0.3 1.3 -1 1 -1.5 -0.3 -0.5 0.1 -1.2 1 -1.5 0.8 -0.3 1.3 -1 1 -1.5 -0.3 -0.5 0.1 -1.2 1 -1.5 0.8 -0.3 1.3 -1 1 -1.5 -0.3 -0.5 0.1 -1.2 1 -1.5 0.8 -0.3 1.3 -1 1 -1.5 -0.3 -0.5 0.1 -1.2 1 -1.5 0.8 -0.3 1.3 -1 1 -1.5 -0.3 -0.5 0.1 -1.2 1 -1.5 0.8 -0.3 1.3 -1 1 -1.5 -0.3 -0.5 0.1 -1.2 1 -1.5 0.8 -0.3 1.3 -1 1 -1.5 -0.3 -0.5 0.1 -1.2 1 -1.5 0.8 -0.3 1.3 -1 1 -1.5 -0.3 -0.5 0.1 -1.2 1 -1.5 0.8 -0.3 1.3 -1 1 -1.5 -0.3 -0.5 0.1 -1.2 1 -1.5 0.8 -0.3 1.3 -1 1 -1.5 -0.3 -0.5 0.1 -1.2 1 -1.5 0.8 -0.3 1.2 -1 0.9 -1.6 -0.3 -0.5 0.1 -1 1 -1 1.1 0 1.5 -0.5 1.1 -1.5 -0.3 -0.9 0 -1.5 1 -1.5 1 0 1.4 -0.6 1 -1.5 -0.3 -0.9 0 -1.5 1 -1.5 1 0 1.4 -0.6 1 -1.5 -0.3 -0.9 0 -1.5 1 -1.5 1 0 1.4 -0.6 1 -1.5 -0.3 -0.9 0 -1.5 1 -1.5 1 0 1.4 -0.6 1 -1.5 -0.3 -0.9 0 -1.5 1 -1.5 1 0 1.4 -0.6 1 -1.5 -0.3 -0.9 0 -1.5 1 -1.5 1 0 1.4 -0.6 1 -1.5 -0.3 -0.9 0 -1.5 0.9 -1.5 0.8 0 1.5 -0.4 1.5 -1 0 -2.1 0.2 -2.5 1.6 -3.3 0.8 -0.5 1.2 -1.2 0.9 -1.7 -0.3 -0.4 0.2 -1.1 1.1 -1.4 0.8 -0.3 1.3 -1 1 -1.5 -0.3 -0.5 0.1 -1.2 1 -1.5 0.8 -0.3 1.3 -1 1 -1.5 -0.3 -0.5 0.1 -1.2 1 -1.5 0.8 -0.3 1.3 -1 1 -1.5 -0.3 -0.5 0.1 -1.2 1 -1.5 0.8 -0.3 1.3 -1 1 -1.5 -0.3 -0.5 0.1 -1.2 1 -1.5 0.8 -0.3 1.3 -1 1 -1.5 -0.3 -0.5 0.1 -1.2 1 -1.5 0.8 -0.3 1.3 -1 1 -1.5 -0.3 -0.5 0.1 -1.2 1 -1.5 0.8 -0.3 1.3 -1 1 -1.5 -0.3 -0.5 0.1 -1.2 1 -1.5 0.8 -0.3 1.3 -1 1 -1.5 -0.3 -0.5 0.1 -1.2 1 -1.5 0.8 -0.3 1.3 -1 1 -1.5 -0.3 -0.5 0.1 -1.2 1 -1.5 0.8 -0.3 1.3 -1 1 -1.5 -0.3 -0.5 0.1 -1.2 1 -1.5 0.8 -0.3 1.3 -1 1 -1.5 -0.3 -0.5 0.1 -1.2 1 -1.5 0.8 -0.3 1.3 -1 1 -1.5 -0.3 -0.5 0.1 -1.2 1 -1.5 0.8 -0.3 1.2 -1 0.9 -1.6 -0.3 -0.5 0.1 -1 1 -1 1.1 0 1.5 -0.5 1.1 -1.5 -0.3 -0.9 0 -1.5 1 -1.5 1.8 0 4.4 2.3 4.4 3.9 0 0.6 0.5 1.1 1 1.1 0.6 0 1 0.7 1 1.5 0 0.8 0.5 1.5 1 1.5 0.6 0 1 0.7 1 1.5 0 0.8 0.5 1.5 1 1.5 0.6 0 1 0.7 1 1.5 0 0.8 0.5 1.5 1 1.5 0.6 0 1 0.7 1 1.5 0 0.8 0.5 1.5 1 1.5 0.6 0 1 0.7 1 1.5 0 0.8 0.5 1.5 1 1.5 0.6 0 1 0.7 1 1.5 0 0.8 0.5 1.5 1 1.5 0.6 0 1 0.7 1 1.5 0 0.8 0.5 1.5 1 1.5 0.6 0 1 0.7 1 1.5 0 0.8 0.5 1.5 1 1.5 0.6 0 1 0.7 1 1.5 0 0.8 0.5 1.5 1 1.5 0.6 0 1 0.7 1 1.5 0 0.8 0.5 1.5 1 1.5 0.6 0 1 0.7 1 1.5 0 0.8 0.5 1.5 1 1.5 0.6 0 1 0.7 1 1.5 0 0.8 0.5 1.5 1 1.5 0.6 0 1 0.7 1 1.5 0 0.8 0.5 1.5 1 1.5 0.6 0 1 0.6 1 1.4 0 0.8 0.4 1.6 0.8 1.8 0.5 0.2 3.1 3.7 5.8 7.8 2.7 4.1 5.2 7.6 5.7 7.8 0.4 0.2 0.7 1 0.7 1.8 0 0.8 0.5 1.4 1 1.4 0.6 0 1 0.7 1 1.5 0 0.8 0.5 1.5 1 1.5 0.6 0 1 0.7 1 1.5 0 0.8 0.5 1.5 1 1.5 0.6 0 1 0.7 1 1.5 0 0.8 0.5 1.5 1 1.5 0.6 0 1 0.7 1 1.5 0 0.8 0.5 1.5 1 1.5 0.6 0 1 0.7 1 1.5 0 0.8 0.5 1.5 1 1.5 0.6 0 1 0.7 1 1.5 0 0.8 0.5 1.5 1 1.5 0.6 0 1 0.7 1 1.5 0 0.8 0.5 1.5 1 1.5 0.6 0 1 0.7 1 1.5 0 0.8 0.5 1.5 1 1.5 0.6 0 1 0.7 1 1.5 0 0.8 0.5 1.5 1 1.5 0.6 0 1 0.7 1 1.5 0 0.8 0.5 1.5 1 1.5 0.6 0 1 0.7 1 1.5 0 0.8 0.5 1.5 1 1.5 0.6 0 1 0.7 1 1.5 0 0.8 0.5 1.5 1 1.5 0.6 0 1 0.7 1 1.5 0 0.8 0.5 1.5 1 1.5 0.6 0 1 0.7 1 1.5 0 0.8 0.5 1.5 1 1.5 0.6 0 1 0.7 1 1.5 0 0.8 0.5 1.5 1 1.5 0.6 0 1 0.7 1 1.5 0 0.8 0.3 1.5 0.8 1.5 0.4 0 2.5 2.8 4.7 6.3 2.2 3.4 4.3 6.3 4.7 6.5 0.5 0.2 0.8 1 0.8 1.8 0 0.8 0.5 1.4 1 1.4 0.6 0 1 0.7 1 1.5 0 0.8 0.5 1.5 1 1.5 0.6 0 1 0.7 1 1.5 0 0.8 0.5 1.5 1 1.5 0.6 0 1 0.7 1 1.5 0 0.8 0.5 1.5 1 1.5 0.6 0 1 0.7 1 1.5 0 0.8 0.5 1.5 1 1.5 0.6 0 1 0.7 1 1.5 0 0.8 0.5 1.5 1 1.5 0.6 0 1 0.7 1 1.5 0 0.8 0.5 1.5 1 1.5 0.6 0 1 0.7 1 1.5 0 0.8 0.5 1.5 1 1.5 0.6 0 1 0.7 1 1.5 0 0.8 0.5 1.5 1 1.5 0.6 0 1 0.7 1 1.5 0 0.8 0.5 1.5 1 1.5 0.6 0 1 0.7 1 1.5 0 0.8 0.5 1.5 1 1.5 0.6 0 1 0.7 1 1.5 0 0.8 0.5 1.5 1 1.5 0.6 0 1 0.7 1 1.5 0 0.8 0.5 1.5 1 1.5 0.6 0 1 0.7 1 1.5 0 0.8 0.5 1.5 1 1.5 0.6 0 1 0.7 1 1.5 0 0.8 0.5 1.5 1 1.5 0.6 0 1 0.7 1 1.5 0 0.8 0.5 1.5 1 1.5 0.6 0 1 0.6 1 1.4 0 0.8 0.4 1.6 0.8 1.8 0.5 0.2 3.1 3.7 5.8 7.8 2.7 4.1 5.2 7.6 5.7 7.8 0.4 0.2 0.7 1 0.7 1.8 0 0.8 0.5 1.4 1 1.4 0.6 0 1 0.7 1 1.5 0 0.8 0.5 1.5 1 1.5 0.6 0 1 0.7 1 1.5 0 0.8 0.5 1.5 1 1.5 0.6 0 1 0.7 1 1.5 0 0.8 0.5 1.5 1 1.5 0.6 0 1 0.7 1 1.5 0 0.8 0.5 1.5 1 1.5 0.6 0 1 0.7 1 1.5 0 0.8 0.5 1.5 1 1.5 0.6 0 1 0.7 1 1.5 0 0.8 0.5 1.5 1 1.5 0.6 0 1 0.7 1 1.5 0 0.8 0.5 1.5 1 1.5 0.6 0 1 0.7 1 1.5 0 0.8 0.5 1.5 1 1.5 0.6 0 1 0.7 1 1.5 0 0.8 0.5 1.5 1 1.5 0.6 0 1 0.7 1 1.5 0 0.8 0.5 1.5 1 1.5 0.6 0 1 0.7 1 1.5 0 0.8 0.5 1.5 1 1.5 0.6 0 1 0.7 1 1.5 0 0.8 0.5 1.5 1 1.5 0.6 0 1 0.7 1 1.5 0 0.8 0.5 1.5 1 1.5 0.6 0 1 0.7 1 1.5 0 0.8 0.5 1.5 1 1.5 0.6 0 1 0.6 1 1.4 0 0.8 0.4 1.6 0.8 1.8 0.5 0.2 3.1 3.7 5.8 7.8 2.7 4.1 5.2 7.7 5.7 7.8 0.4 0.2 0.7 1 0.7 1.8 0 0.8 0.5 1.4 1 1.4 0.6 0 1 0.7 1 1.5 0 0.8 0.5 1.5 1 1.5 0.6 0 1 0.7 1 1.5 0 0.8 0.5 1.5 1 1.5 0.6 0 1 0.7 1 1.5 0 0.8 0.5 1.5 1 1.5 0.6 0 1 0.7 1 1.5 0 0.8 0.5 1.5 1 1.5 0.6 0 1 0.7 1 1.5 0 0.8 0.5 1.5 1 1.5 0.6 0 1 0.7 1 1.5 0 0.8 0.5 1.5 1 1.5 0.6 0 1 0.7 1 1.5 0 0.8 0.5 1.5 1 1.5 0.6 0 1 0.7 1 1.5 0 0.8 0.5 1.5 1 1.5 0.6 0 1 0.7 1 1.5 0 0.8 0.5 1.5 1 1.5 0.6 0 1 0.7 1 1.5 0 0.8 0.5 1.5 1 1.5 0.6 0 1 0.7 1 1.5 0 0.8 0.5 1.5 1 1.5 0.6 0 1 0.7 1 1.5 0 0.8 0.5 1.5 1 1.5 0.6 0 1 0.7 1 1.5 0 0.8 0.5 1.5 1 1.5 0.6 0 1 0.7 1 1.5 0 0.8 0.5 1.5 1 1.5 0.6 0 1 0.7 1 1.5 0 0.8 0.5 1.5 1 1.5 0.6 0 1 0.7 1 1.5 0 0.8 0.3 1.5 0.8 1.5 0.4 0 2.5 2.8 4.7 6.3 2.2 3.4 4.3 6.4 4.7 6.5 0.5 0.2 0.8 1 0.8 1.8 0 0.8 0.5 1.4 1 1.4 0.6 0 1 0.7 1 1.5 0 0.8 0.5 1.5 1 1.5 0.6 0 1 0.7 1 1.5 0 0.8 0.5 1.5 1 1.5 0.6 0 1 0.7 1 1.5 0 0.8 0.5 1.5 1 1.5 0.6 0 1 0.7 1 1.5 0 0.8 0.5 1.5 1 1.5 0.6 0 1 0.7 1 1.5 0 0.8 0.5 1.5 1 1.5 0.6 0 1 0.7 1 1.5 0 0.8 0.5 1.5 1 1.5 0.6 0 1 0.7 1 1.5 0 0.8 0.5 1.5 1 1.5 0.6 0 1 0.7 1 1.5 0 0.8 0.5 1.5 1 1.5 0.6 0 1 0.7 1 1.5 0 0.8 0.5 1.5 1 1.5 0.6 0 1 0.7 1 1.5 0 0.8 0.5 1.5 1 1.5 0.6 0 1 0.7 1 1.5 0 0.8 0.5 1.5 1 1.5 0.6 0 1 0.7 1 1.5 0 0.8 0.5 1.5 1 1.5 0.6 0 1 0.7 1 1.5 0 0.8 0.5 1.5 1 1.5 0.6 0 1 0.7 1 1.5 0 0.8 0.5 1.5 1 1.5 0.6 0 1 0.7 1 1.5 0 0.8 0.5 1.5 1 1.5 0.6 0 1 0.6 1 1.4 0 0.8 0.4 1.6 0.8 1.8 0.5 0.2 3.1 3.7 5.8 7.8 2.7 4.1 5.2 7.7 5.7 7.8 0.4 0.2 0.7 1 0.7 1.8 0 0.8 0.5 1.4 1 1.4 0.6 0 1 0.7 1 1.5 0 0.8 0.5 1.5 1 1.5 0.6 0 1 0.7 1 1.5 0 0.8 0.5 1.5 1 1.5 0.6 0 1 0.7 1 1.5 0 0.8 0.5 1.5 1 1.5 0.6 0 1 0.7 1 1.5 0 0.8 0.5 1.5 1 1.5 0.6 0 1 0.7 1 1.5 0 0.8 0.5 1.5 1 1.5 0.6 0 1 0.7 1 1.5 0 0.8 0.5 1.5 1 1.5 0.6 0 1 0.7 1 1.5 0 0.8 0.5 1.5 1 1.5 0.6 0 1 0.7 1 1.5 0 0.8 0.5 1.5 1 1.5 0.6 0 1 0.7 1 1.5 0 0.8 0.5 1.5 1 1.5 0.6 0 1 0.7 1 1.5 0 0.8 0.5 1.5 1 1.5 0.6 0 1 0.7 1 1.5 0 0.8 0.5 1.5 1 1.5 0.6 0 1 0.7 1 1.5 0 0.8 0.5 1.5 1 1.5 0.6 0 1 0.7 1 1.5 0 0.8 0.5 1.5 1 1.5 0.6 0 1 0.7 1 1.5 0 0.8 0.5 1.5 1 1.5 0.6 0 1 0.6 1 1.4 0 0.8 0.4 1.6 0.8 1.8 0.5 0.2 3.1 3.7 5.8 7.8 2.7 4.1 5.2 7.7 5.7 7.8 0.4 0.2 0.7 1 0.7 1.8 0 0.8 0.5 1.4 1 1.4 0.6 0 1 0.7 1 1.5 0 0.8 0.5 1.5 1 1.5 0.6 0 1 0.7 1 1.5 0 0.8 0.5 1.5 1 1.5 0.6 0 1 0.7 1 1.5 0 0.8 0.5 1.5 1 1.5 0.6 0 1 0.7 1 1.5 0 0.8 0.5 1.5 1 1.5 0.6 0 1 0.7 1 1.5 0 0.8 0.5 1.5 1 1.5 0.6 0 1 0.7 1 1.5 0 0.8 0.5 1.5 1 1.5 0.6 0 1 0.7 1 1.5 0 0.8 0.5 1.5 1 1.5 0.6 0 1 0.7 1 1.5 0 0.8 0.5 1.5 1 1.5 0.6 0 1 0.7 1 1.5 0 0.8 0.5 1.5 1 1.5 0.6 0 1 0.7 1 1.5 0 0.8 0.5 1.5 1 1.5 0.6 0 1 0.7 1 1.5 0 0.8 0.5 1.5 1 1.5 0.6 0 1 0.7 1 1.5 0 0.8 0.5 1.5 1 1.5 0.6 0 1 0.7 1 1.5 0 0.8 0.5 1.5 1 1.5 0.6 0 1 0.7 1 1.5 0 0.8 0.5 1.5 1 1.5 0.6 0 1 0.7 1 1.5 0 0.8 0.5 1.5 1 1.5 0.6 0 1 0.7 1 1.5 0 0.8 0.3 1.5 0.8 1.5 0.4 0 2.5 2.8 4.7 6.3 2.2 3.4 4.3 6.4 4.7 6.5 0.5 0.2 0.8 1 0.8 1.8 0 0.8 0.5 1.4 1 1.4 0.6 0 1 0.7 1 1.5 0 0.8 0.5 1.5 1 1.5 0.6 0 1 0.7 1 1.5 0 0.8 0.5 1.5 1 1.5 0.6 0 1 0.7 1 1.5 0 0.8 0.5 1.5 1 1.5 0.6 0 1 0.7 1 1.5 0 0.8 0.5 1.5 1 1.5 0.6 0 1 0.7 1 1.5 0 0.8 0.5 1.5 1 1.5 0.6 0 1 0.7 1 1.5 0 0.8 0.5 1.5 1 1.5 0.6 0 1 0.7 1 1.5 0 0.8 0.5 1.5 1 1.5 0.6 0 1 0.7 1 1.5 0 0.8 0.5 1.5 1 1.5 0.6 0 1 0.7 1 1.5 0 0.8 0.5 1.5 1 1.5 0.6 0 1 0.7 1 1.5 0 0.8 0.5 1.5 1 1.5 0.6 0 1 0.7 1 1.5 0 0.8 0.5 1.5 1 1.5 0.6 0 1 0.7 1 1.5 0 0.8 0.5 1.5 1 1.5 0.6 0 1 0.7 1 1.5 0 0.8 0.5 1.5 1 1.5 0.6 0 1 0.7 1 1.5 0 0.8 0.5 1.5 1 1.5 0.6 0 1 0.7 1 1.5 0 0.8 0.5 1.5 1 1.5 0.6 0 1 0.6 1 1.4 0 0.8 0.4 1.6 0.8 1.8 0.5 0.2 3.1 3.7 5.8 7.8 2.7 4.1 5.2 7.7 5.7 7.8 0.4 0.2 0.7 1 0.7 1.8 0 0.8 0.5 1.4 1 1.4 0.6 0 1 0.7 1 1.5 0 0.8 0.5 1.5 1 1.5 0.6 0 1 0.7 1 1.5 0 0.8 0.5 1.5 1 1.5 0.6 0 1 0.7 1 1.5 0 0.8 0.5 1.5 1 1.5 0.6 0 1 0.7 1 1.5 0 0.8 0.5 1.5 1 1.5 0.6 0 1 0.7 1 1.5 0 0.8 0.5 1.5 1 1.5 0.6 0 1 0.7 1 1.5 0 0.8 0.5 1.5 1 1.5 0.6 0 1 0.7 1 1.5 0 0.8 0.5 1.5 1 1.5 0.6 0 1 0.7 1 1.5 0 0.8 0.5 1.5 1 1.5 0.6 0 1 0.7 1 1.5 0 0.8 0.5 1.5 1 1.5 0.6 0 1 0.7 1 1.5 0 0.8 0.5 1.5 1 1.5 0.6 0 1 0.7 1 1.5 0 0.8 0.5 1.5 1 1.5 0.6 0 1 0.7 1 1.5 0 0.8 0.5 1.5 1 1.5 0.6 0 1 0.7 1 1.5 0 0.8 0.5 1.5 1 1.5 0.6 0 1 0.7 1 1.5 0 0.8 0.5 1.5 1 1.5 0.6 0 1 0.6 1 1.4 0 0.8 0.4 1.6 0.8 1.8 0.5 0.2 3.1 3.7 5.8 7.8 2.7 4.1 5.2 7.7 5.7 7.8 0.4 0.2 0.7 1 0.7 1.8 0 0.8 0.5 1.4 1 1.4 0.6 0 1 0.7 1 1.5 0 0.8 0.5 1.5 1 1.5 0.6 0 1 0.7 1 1.5 0 0.8 0.5 1.5 1 1.5 0.6 0 1 0.7 1 1.5 0 0.8 0.5 1.5 1 1.5 0.6 0 1 0.7 1 1.5 0 0.8 0.5 1.5 1 1.5 0.6 0 1 0.7 1 1.5 0 0.8 0.5 1.5 1 1.5 0.6 0 1 0.7 1 1.5 0 0.8 0.5 1.5 1 1.5 0.6 0 1 0.7 1 1.5 0 0.8 0.5 1.5 1 1.5 0.6 0 1 0.7 1 1.5 0 0.8 0.5 1.5 1 1.5 0.6 0 1 0.7 1 1.5 0 0.8 0.5 1.5 1 1.5 0.6 0 1 0.7 1 1.5 0 0.8 0.5 1.5 1 1.5 0.6 0 1 0.7 1 1.5 0 0.8 0.5 1.5 1 1.5 0.6 0 1 0.7 1 1.5 0 0.8 0.5 1.5 1 1.5 0.6 0 1 0.7 1 1.5 0 0.8 0.5 1.5 1 1.5 0.6 0 1 0.7 1 1.5 0 0.8 0.5 1.5 1 1.5 0.6 0 1 0.7 1 1.5 0 0.8 0.5 1.5 1 1.5 0.6 0 1 0.7 1 1.5 0 0.8 0.3 1.5 0.8 1.5 0.4 0 2.5 2.8 4.7 6.3 2.2 3.4 4.3 6.4 4.7 6.5 0.5 0.2 0.8 1 0.8 1.8 0 0.8 0.5 1.4 1 1.4 0.6 0 1 0.7 1 1.5 0 0.8 0.5 1.5 1 1.5 0.6 0 1 0.7 1 1.5 0 0.8 0.5 1.5 1 1.5 0.6 0 1 0.7 1 1.5 0 0.8 0.5 1.5 1 1.5 0.6 0 1 0.7 1 1.5 0 0.8 0.5 1.5 1 1.5 0.6 0 1 0.7 1 1.5 0 0.8 0.5 1.5 1 1.5 0.6 0 1 0.7 1 1.5 0 0.8 0.5 1.5 1 1.5 0.6 0 1 0.7 1 1.5 0 0.8 0.5 1.5 1 1.5 0.6 0 1 0.7 1 1.5 0 0.8 0.5 1.5 1 1.5 0.6 0 1 0.7 1 1.5 0 0.8 0.5 1.5 1 1.5 0.6 0 1 0.7 1 1.5 0 0.8 0.5 1.5 1 1.5 0.6 0 1 0.7 1 1.5 0 0.8 0.5 1.5 1 1.5 0.6 0 1 0.7 1 1.5 0 0.8 0.5 1.5 1 1.5 0.6 0 1 0.7 1 1.5 0 0.8 0.5 1.5 1 1.5 0.6 0 1 0.7 1 1.5 0 0.8 0.5 1.5 1 1.5 0.6 0 1 0.7 1 1.5 0 0.8 0.5 1.5 1 1.5 0.6 0 1 0.6 1 1.4 0 0.8 0.4 1.6 0.8 1.8 0.5 0.2 3.1 3.7 5.8 7.8 2.7 4.1 5.2 7.7 5.7 7.8 0.4 0.2 0.7 1 0.7 1.8 0 0.8 0.5 1.4 1 1.4 0.6 0 1 0.7 1 1.5 0 0.8 0.5 1.5 1 1.5 0.6 0 1 0.7 1 1.5 0 0.8 0.5 1.5 1 1.5 0.6 0 1 0.7 1 1.5 0 0.8 0.5 1.5 1 1.5 0.6 0 1 0.7 1 1.5 0 0.8 0.5 1.5 1 1.5 0.6 0 1 0.7 1 1.5 0 0.8 0.5 1.5 1 1.5 0.6 0 1 0.7 1 1.5 0 0.8 0.5 1.5 1 1.5 0.6 0 1 0.7 1 1.5 0 0.8 0.5 1.5 1 1.5 0.6 0 1 0.7 1 1.5 0 0.8 0.5 1.5 1 1.5 0.6 0 1 0.7 1 1.5 0 0.8 0.5 1.5 1 1.5 0.6 0 1 0.7 1 1.5 0 0.8 0.5 1.5 1 1.5 0.6 0 1 0.7 1 1.5 0 0.8 0.5 1.5 1 1.5 0.6 0 1 0.7 1 1.5 0 0.8 0.5 1.5 1 1.5 0.6 0 1 0.7 1 1.5 0 0.8 0.5 1.5 1 1.5 0.6 0 1 0.7 1 1.5 0 0.8 0.5 1.5 1 1.5 0.6 0 1 0.6 1 1.4 0 0.8 0.4 1.6 0.8 1.8 0.5 0.2 3.1 3.7 5.8 7.8 2.7 4.1 5.2 7.7 5.7 7.8 0.4 0.2 0.7 1 0.7 1.8 0 0.8 0.5 1.4 1 1.4 0.6 0 1 0.7 1 1.5 0 0.8 0.5 1.5 1 1.5 0.6 0 1 0.7 1 1.5 0 0.8 0.5 1.5 1 1.5 0.6 0 1 0.7 1 1.5 0 0.8 0.5 1.5 1 1.5 0.6 0 1 0.7 1 1.5 0 0.8 0.5 1.5 1 1.5 0.6 0 1 0.7 1 1.5 0 0.8 0.5 1.5 1 1.5 0.6 0 1 0.7 1 1.5 0 0.8 0.5 1.5 1 1.5 0.6 0 1 0.7 1 1.5 0 0.8 0.5 1.5 1 1.5 0.6 0 1 0.7 1 1.5 0 0.8 0.5 1.5 1 1.5 0.6 0 1 0.7 1 1.5 0 0.8 0.5 1.5 1 1.5 0.6 0 1 0.7 1 1.5 0 0.8 0.5 1.5 1 1.5 0.6 0 1 0.5 1 1 0 0.7 -66.5 1 -197.5 1 l-197.5 0 0 23.8 c0 23.6 0 23.9 -2.3 26 -1.3 1.2 -3.4 2.2 -4.6 2.2 -1.8 0 -68 -12.4 -83.3 -15.6 l-2.8 -0.6 0 15.7 0 15.7 -2.9 2.9 -2.9 2.9 -107.1 0 -107 0 -2.8 -2.4z"/>
 </g>
 <g fill="#ce9b57">
  <path d="M879.3 1223.6 l-2.8 -2.4 -0.3 -72.9 c-0.1 -40 0 -73.8 0.3 -75 0.3 -1.2 1.5 -3.2 2.7 -4.3 2.1 -1.9 3.4 -2 35.5 -2 l33.3 0 -0.2 -20.1 -0.3 -20.2 -8 -1.9 c-35.6 -8.3 -68.8 -28 -92.8 -55.2 -47.9 -54.3 -58.3 -132.5 -26.1 -196.7 10.1 -20.4 19.6 -33.1 36.9 -49.7 36.9 -35.5 88 -53.3 138.9 -48.3 78.5 7.7 142.1 65.3 157.7 142.7 2.7 13.7 3.7 41 2 55.1 -4.2 33.9 -18.2 66.6 -39.8 92.5 -15.4 18.5 -38.2 36.4 -59 46.4 -12.8 6.2 -33.5 12.8 -46.3 14.9 -5.8 0.9 -11.5 1.9 -12.7 2.1 -2.3 0.4 -2.3 0.5 -2.3 19.4 l0 19 49.5 0 c34.1 0 50.2 0.3 51.8 1.1 4 1.8 4.7 4.9 4.7 21 0 13.9 0.1 15 1.8 14.5 3.4 -1 82.6 -15.6 84.7 -15.6 1.2 0 3.1 1 4.3 2.3 l2.2 2.3 0 54 0 54.1 -2.3 2.1 c-1.3 1.2 -3.4 2.2 -4.6 2.2 -1.8 0 -68 -12.4 -83.3 -15.6 l-2.8 -0.6 0 15.7 0 15.7 -2.9 2.9 -2.9 2.9 -107.1 0 -107 0 -2.8 -2.4z m156.9 -224.7 c2.9 -0.6 7.1 -2.1 9.3 -3.2 6 -3 17.8 -11.2 21.5 -14.8 10.9 -10.9 13.9 -26.8 7.6 -40.5 -2 -4.4 -5.7 -8.9 -15.4 -18.7 -7 -7.1 -14.6 -14.2 -17 -15.9 -9.9 -6.8 -23.4 -11.7 -32.5 -11.8 -15.8 0 -25.9 11.4 -27.4 30.9 -0.8 11.1 1.1 20.7 7.4 36.6 7.3 18.4 8.6 20.9 14 26.6 5.7 6.1 9.4 8.4 16.4 10.3 6.7 1.8 9.4 1.9 16.1 0.5z m-114 -13.1 c7.9 -3.6 13 -9.2 22.1 -24.1 13 -21.2 16.4 -31.2 15.5 -46.5 -0.6 -9.9 -2.5 -15.2 -7.1 -20.1 -9.4 -9.9 -28.7 -10.5 -47.2 -1.7 -7.3 3.6 -27.9 17.9 -34.4 23.9 -11 10.4 -14.1 27.3 -7.6 41 4.5 9.5 21.9 25.4 31.8 28.9 7.5 2.7 19.3 2.1 26.9 -1.4z m195.1 -82.6 c6.9 -3.1 15 -11.1 18.1 -18.1 3 -6.8 5.2 -23.9 4.2 -33.5 -1.6 -15.9 -13.5 -28.6 -29.6 -31.6 -6.2 -1.2 -32.3 1 -42.5 3.5 -15.2 3.8 -30 13.9 -34.9 23.7 -6.9 13.8 0.8 30.4 19.4 42.3 8.5 5.4 11.6 6.7 29 12 13.2 4.1 15.3 4.5 23 4.2 6 -0.2 9.9 -1 13.3 -2.5z m-241.8 -21.7 c20.8 -2.3 32 -6.7 42.9 -16.6 8.3 -7.6 11.1 -13.7 10.3 -22.6 -0.6 -8 -3.9 -13.9 -12.6 -22.1 -8.4 -8.1 -19.4 -13.5 -38.9 -19.2 -18.8 -5.4 -27 -5.6 -36.7 -0.7 -6.3 3.1 -10.1 6.4 -13.9 12 -5.3 7.9 -6.9 14.9 -7 31.2 -0.1 13.4 0 14.3 2.7 19.6 4.8 9.9 15 17.6 26 19.9 4.5 0.9 7.3 0.7 27.2 -1.5z m162.8 -66.4 c10.2 -2.7 17.6 -6.5 32.3 -16.8 13.6 -9.4 17 -12.7 21.2 -20.6 2.4 -4.7 2.7 -6.2 2.7 -15.2 0 -9.1 -0.3 -10.5 -3 -16 -3.9 -7.7 -19 -23.3 -26 -26.8 -14.6 -7.3 -31.5 -4.7 -42.1 6.5 -5.3 5.4 -17.4 23.9 -21.9 33.2 -6.4 13.4 -8.3 29.7 -4.8 40.7 2.3 7 8.4 13.3 15 15.3 6.8 2.1 17.6 1.9 26.6 -0.3z m-80.3 -7.8 c3 -1.6 6.5 -4.5 8.1 -6.8 6.4 -8.9 9.4 -25.3 7 -39.1 -1.6 -8.9 -9.5 -33.5 -12.9 -39.7 -7 -13.1 -23.7 -20.8 -38.3 -17.8 -7.1 1.5 -26 11.9 -31.7 17.4 -2.4 2.3 -5.5 6.7 -7 9.7 -2.4 4.9 -2.7 6.6 -2.7 15.5 0.1 8 0.5 10.9 2.2 14.6 2.5 5.4 14.7 20.4 24.8 30.5 16.1 16 37.3 22.6 50.5 15.7z"/>
 </g>
</svg>